<?xml version="1.0" encoding="utf-8"?>
<!-- Generator: Adobe Illustrator 22.1.0, SVG Export Plug-In . SVG Version: 6.00 Build 0)  -->
<svg version="1.1" id="Layer_1" xmlns="http://www.w3.org/2000/svg" xmlns:xlink="http://www.w3.org/1999/xlink" x="0px" y="0px"
	 viewBox="0 0 236 141" style="enable-background:new 0 0 236 141;" xml:space="preserve">
<style type="text/css">
	.st0{fill:#F9B233;}
	.st1{fill:#F39200;}
	.st2{opacity:0.38;fill:#FFFFFF;}
	.st3{fill:#E6332A;}
</style>
<g id="XMLID_113_">
	<g id="XMLID_14_">
		<g id="XMLID_102_">
			<path id="XMLID_111_" class="st0" d="M104.5,27.6c-0.1,0-5-2.1-5-2.1l-0.6-0.9l-6.2-0.2l-0.2,0.9l-2.8,0l-0.1,0.4l-2.7-0.2
				l-0.4,0.2c0,0-1.6,0.9-10.6-5.6c-2.2-1.6-8.1-2.9-11.3,1.8c-3.2,4.7-21.4,83.5-21.4,83.5s-2.2,5.8-4.6,3.1
				c-2.4-2.7,4.6-16.5,5.1-23.7c0.6-7.2-4.8-15.3-3.3-18c1.5-2.7,1.9-1.4,1.9-2.6L24.1,76c0,0,0.1,0.6,0.8,0.3
				c0.7-0.3,1.8-1,2.6-0.4c0.8,0.6,4.3,5.2,3.5,12.1c-0.8,7-3.3,21.9-3.7,23.3c-0.3,1.4-1.9,14.6,4.4,18c6.3,3.4,11.1,0.2,15.3-5.6
				c4.2-5.8,6-19.9,7.7-28.1C56.6,87.3,66,27.9,67,24.9c0.8-2.4,5.2-3.5,8.4-1.5c3.1,2,8.7,4.8,11.8,4.8
				C90.4,28.2,104.5,27.6,104.5,27.6z"/>
			<path id="XMLID_110_" class="st1" d="M104.5,27.6l-5-2.1l-0.6-0.9l-6.2-0.2l-0.2,0.9l-2.8,0l-0.6,2.8l11.7-0.3
				C100.8,27.8,103.6,27.8,104.5,27.6z"/>
			<path id="XMLID_109_" class="st1" d="M56.7,49.5c-0.3,1.3,0.5,2.6,1.8,2.9c1.3,0.3,2.6-0.5,2.9-1.8c0.3-1.3-0.5-2.6-1.8-2.9
				C58.3,47.4,57,48.2,56.7,49.5z"/>
			<path id="XMLID_108_" class="st1" d="M54.5,59.3c-0.4,1.6,0.6,3.1,2.2,3.5c1.6,0.4,3.1-0.6,3.5-2.2c0.4-1.6-0.6-3.1-2.2-3.5
				C56.5,56.8,54.9,57.8,54.5,59.3z"/>
			<path id="XMLID_107_" class="st1" d="M52.8,69.3c-0.4,1.6,0.6,3.1,2.2,3.5c1.6,0.4,3.1-0.6,3.5-2.2c0.4-1.6-0.6-3.1-2.2-3.5
				C54.8,66.8,53.2,67.7,52.8,69.3z"/>
			<path id="XMLID_106_" class="st1" d="M51.1,79.3c-0.4,1.6,0.6,3.1,2.2,3.5c1.6,0.4,3.1-0.6,3.5-2.2c0.4-1.6-0.6-3.1-2.2-3.5
				C53.1,76.7,51.5,77.7,51.1,79.3z"/>
			<path id="XMLID_105_" class="st1" d="M49.4,89.2c-0.4,1.6,0.6,3.1,2.2,3.5c1.6,0.4,3.1-0.6,3.5-2.2c0.4-1.6-0.6-3.1-2.2-3.5
				C51.4,86.7,49.8,87.7,49.4,89.2z"/>
			<path id="XMLID_104_" class="st1" d="M47.7,99.2c-0.4,1.6,0.6,3.1,2.2,3.5c1.6,0.4,3.1-0.6,3.5-2.2c0.4-1.6-0.6-3.1-2.2-3.5
				C49.7,96.7,48.1,97.6,47.7,99.2z"/>
			<path id="XMLID_103_" class="st1" d="M21.3,76.3l0.4,0.6c0.2,0.3,0.5,0.4,0.8,0.2l21-13.6c0.3-0.2,0.4-0.5,0.2-0.8L43.4,62
				c-0.2-0.3-0.5-0.4-0.8-0.2l-21,13.6C21.2,75.6,21.2,76,21.3,76.3z"/>
		</g>
		<path id="XMLID_101_" class="st2" d="M39.9,84.8L39.9,84.8c1.1-0.3,1.9-1.4,1.6-2.6l-1.8-7.9c-0.3-1.1-1.4-1.9-2.6-1.6l0,0
			c-1.1,0.3-1.9,1.4-1.6,2.6l1.8,7.9C37.6,84.4,38.8,85.1,39.9,84.8z"/>
		<path id="XMLID_17_" class="st2" d="M61,46.6L61,46.6c1.2,0.2,2.3-0.6,2.5-1.7l1.4-8c0.2-1.2-0.6-2.3-1.7-2.5l0,0
			c-1.2-0.2-2.3,0.6-2.5,1.7l-1.4,8C59.1,45.3,59.8,46.4,61,46.6z"/>
	</g>
	<g id="XMLID_409_">
		<g>
			<path class="st0" d="M74.1,52.4c0.9-0.5,2.1-1,3.9-1.4c1.7-0.5,3.5-0.7,5.2-0.7c2.5,0,4.7,0.4,6.6,1.1c1.9,0.7,3.2,1.9,3.7,3.4
				c0.9,2.6,1.9,5.6,2.9,9.1c1.1,3.5,2.1,7,3.2,10.7c1.1,3.7,2.1,7.3,3.1,10.9c1,3.6,1.9,6.7,2.6,9.5c-0.6,0.7-1.5,1.3-2.7,1.7
				s-2.6,0.6-4.3,0.6c-1.2,0-2.2-0.1-3-0.3c-0.8-0.2-1.5-0.5-2-0.9c-0.5-0.4-1-0.9-1.3-1.6c-0.3-0.7-0.6-1.4-0.9-2.3l-1.4-5.2H76.2
				c-0.4,1.5-0.8,3.1-1.2,4.7c-0.4,1.6-0.8,3.2-1.2,4.7c-0.7,0.3-1.4,0.5-2.2,0.6c-0.8,0.2-1.7,0.3-2.8,0.3c-2.6,0-4.4-0.4-5.7-1.3
				c-1.2-0.9-1.8-2.1-1.8-3.6c0-0.7,0.1-1.4,0.3-2.1c0.2-0.7,0.4-1.5,0.7-2.5c0.3-1.4,0.8-3,1.5-5c0.6-2,1.3-4.2,2.1-6.5
				c0.8-2.3,1.6-4.7,2.4-7.2c0.9-2.5,1.7-4.8,2.4-6.9c0.8-2.2,1.4-4.1,2.1-5.8C73.3,54.6,73.8,53.3,74.1,52.4z M83.1,62.1
				c-0.7,2.1-1.5,4.4-2.4,7c-0.9,2.6-1.7,5.2-2.4,7.8h9.3c-0.7-2.7-1.4-5.3-2.1-7.9c-0.7-2.6-1.4-4.9-2-6.9H83.1z"/>
			<path class="st0" d="M130.1,61.6h-18.5c-0.4-0.6-0.7-1.3-1-2.3c-0.3-1-0.5-2-0.5-3c0-2,0.4-3.4,1.3-4.2c0.9-0.9,2-1.3,3.4-1.3h28
				c2.2,1.8,3.3,4.2,3.3,7.2c0,1.3-0.3,2.5-0.9,3.7c-0.6,1.2-1.3,2.4-2.2,3.5l-17,20.6h19.2c0.3,0.6,0.7,1.3,1,2.3
				c0.3,1,0.5,2,0.5,3c0,2-0.4,3.4-1.3,4.2c-0.9,0.9-2,1.3-3.4,1.3h-29.6c-0.9-0.7-1.6-1.7-2.1-2.9c-0.6-1.2-0.8-2.6-0.8-4.1
				c0-1.3,0.3-2.5,1-3.8c0.6-1.3,1.4-2.5,2.3-3.6L130.1,61.6z"/>
			<path class="st0" d="M172.6,61.6h-18.5c-0.4-0.6-0.7-1.3-1-2.3c-0.3-1-0.5-2-0.5-3c0-2,0.4-3.4,1.3-4.2c0.9-0.9,2-1.3,3.4-1.3h28
				c2.2,1.8,3.3,4.2,3.3,7.2c0,1.3-0.3,2.5-0.9,3.7c-0.6,1.2-1.3,2.4-2.2,3.5l-17,20.6h19.2c0.3,0.6,0.7,1.3,1,2.3
				c0.3,1,0.5,2,0.5,3c0,2-0.4,3.4-1.3,4.2c-0.9,0.9-2,1.3-3.4,1.3h-29.6c-0.9-0.7-1.6-1.7-2.1-2.9c-0.6-1.2-0.8-2.6-0.8-4.1
				c0-1.3,0.3-2.5,1-3.8c0.6-1.3,1.4-2.5,2.3-3.6L172.6,61.6z"/>
		</g>
	</g>
	<g>
		<path class="st3" d="M83.9,116.2c-0.1,0-0.3,0.1-0.6,0.1s-0.5,0-0.8,0s-0.5,0-0.7-0.1c-0.2,0-0.3-0.1-0.5-0.2
			c-0.1-0.1-0.2-0.2-0.3-0.4c-0.1-0.2-0.1-0.4-0.1-0.7v-2.5H78v3.7c-0.1,0-0.3,0.1-0.6,0.1s-0.5,0-0.8,0c-0.2,0-0.5,0-0.7-0.1
			s-0.3-0.1-0.5-0.2c-0.1-0.1-0.2-0.2-0.3-0.4c-0.1-0.2-0.1-0.4-0.1-0.7v-8.5c0.1,0,0.3-0.1,0.6-0.1c0.3,0,0.5-0.1,0.7-0.1
			c0.2,0,0.5,0,0.7,0.1c0.2,0,0.3,0.1,0.5,0.2c0.1,0.1,0.2,0.2,0.3,0.4c0.1,0.2,0.1,0.4,0.1,0.7v2.6h3.1v-3.8c0.1,0,0.3-0.1,0.6-0.1
			c0.3,0,0.5-0.1,0.7-0.1c0.2,0,0.5,0,0.7,0.1c0.2,0,0.3,0.1,0.5,0.2c0.1,0.1,0.2,0.2,0.3,0.4s0.1,0.4,0.1,0.7V116.2z"/>
		<path class="st3" d="M95.8,110.2c0.2-0.1,0.4-0.1,0.6-0.2c0.2,0,0.4-0.1,0.5-0.1c0.3,0,0.5,0,0.6,0.1c0.2,0.1,0.3,0.2,0.4,0.3
			c0.1,0.1,0.2,0.3,0.2,0.5c0,0.2,0,0.4,0,0.6c0,0.9-0.2,1.7-0.7,2.5l1.2,1.2c0,0.4-0.2,0.7-0.4,1c-0.3,0.3-0.6,0.4-0.9,0.4
			c-0.4,0-0.9-0.2-1.3-0.6l-0.3-0.3c-0.4,0.3-0.9,0.5-1.4,0.7c-0.5,0.2-1.1,0.3-1.7,0.3c-0.6,0-1.2-0.1-1.7-0.3
			c-0.5-0.2-0.9-0.4-1.2-0.7c-0.3-0.3-0.6-0.6-0.8-1c-0.2-0.4-0.3-0.8-0.3-1.3c0-0.4,0.1-0.8,0.2-1.1c0.1-0.3,0.3-0.6,0.5-0.8
			s0.4-0.4,0.6-0.6c0.2-0.2,0.5-0.3,0.7-0.4c-0.2-0.3-0.4-0.5-0.5-0.8c-0.1-0.3-0.1-0.6-0.1-0.8c0-0.3,0.1-0.6,0.2-0.9
			s0.3-0.5,0.6-0.8c0.3-0.2,0.6-0.4,0.9-0.5c0.4-0.1,0.8-0.2,1.3-0.2c0.7,0,1.2,0.1,1.4,0.4c0.3,0.2,0.4,0.6,0.4,0.9
			c0,0.2,0,0.4-0.1,0.5c-0.1,0.2-0.2,0.3-0.3,0.5c-0.1-0.1-0.3-0.1-0.4-0.1c-0.2,0-0.3,0-0.5,0c-0.3,0-0.5,0-0.7,0.1
			c-0.2,0.1-0.3,0.2-0.3,0.5c0,0.2,0.1,0.3,0.2,0.5c0.1,0.2,0.3,0.4,0.5,0.6l2.1,2c0.1-0.2,0.1-0.5,0.1-0.8
			C95.7,111,95.8,110.6,95.8,110.2z M91.4,113.1c0,0.4,0.1,0.7,0.4,0.9c0.3,0.3,0.6,0.4,1.1,0.4c0.2,0,0.4,0,0.7-0.1
			c0.2-0.1,0.5-0.2,0.7-0.3l-2.1-2.1c-0.3,0.1-0.5,0.3-0.6,0.5C91.5,112.7,91.4,112.9,91.4,113.1z"/>
		<path class="st3" d="M105.1,106.5c0.1,0,0.3-0.1,0.6-0.1c0.3,0,0.5-0.1,0.7-0.1c0.2,0,0.5,0,0.7,0.1c0.2,0,0.3,0.1,0.5,0.2
			c0.1,0.1,0.2,0.2,0.3,0.4c0.1,0.2,0.1,0.4,0.1,0.7v6c0,1-0.3,1.7-0.8,2.2c-0.5,0.5-1.4,0.7-2.4,0.7c-0.6,0-1-0.1-1.4-0.3
			c-0.2-0.1-0.4-0.3-0.5-0.5c-0.1-0.2-0.2-0.4-0.2-0.7c0-0.2,0-0.4,0.1-0.6s0.1-0.3,0.2-0.4c0.2,0,0.4,0.1,0.5,0.1s0.3,0,0.5,0
			c0.4,0,0.7-0.1,0.9-0.3c0.2-0.2,0.3-0.5,0.3-0.9V106.5z"/>
		<path class="st3" d="M120,113.9c-0.1,0.1-0.3,0.2-0.5,0.3c-0.2,0.1-0.5,0.1-0.8,0.1c-0.4,0-0.7,0-1-0.1s-0.4-0.3-0.5-0.5
			c-0.3-0.9-0.5-1.7-0.7-2.3s-0.3-1.1-0.5-1.5H116c0,0.6-0.1,1.2-0.1,1.7s0,1,0,1.5s0,1,0,1.5s0,1.1-0.1,1.7
			c-0.1,0.1-0.3,0.1-0.5,0.1c-0.2,0-0.5,0.1-0.7,0.1c-0.5,0-0.8-0.1-1.1-0.2c-0.3-0.2-0.4-0.4-0.4-0.8l0.5-8.2
			c0.1-0.1,0.3-0.3,0.6-0.5c0.3-0.2,0.7-0.2,1.2-0.2c0.6,0,1,0.1,1.3,0.3c0.3,0.2,0.6,0.5,0.7,0.9c0.1,0.3,0.2,0.6,0.3,0.9
			c0.1,0.3,0.2,0.7,0.3,1c0.1,0.4,0.2,0.7,0.3,1.1c0.1,0.4,0.2,0.7,0.3,0.9h0.1c0.3-0.9,0.5-1.8,0.8-2.6c0.3-0.8,0.5-1.6,0.7-2.1
			c0.2-0.1,0.4-0.2,0.6-0.2s0.5-0.1,0.8-0.1c0.5,0,1,0.1,1.3,0.2c0.3,0.2,0.5,0.4,0.6,0.7c0,0.2,0.1,0.5,0.1,1
			c0,0.4,0.1,0.9,0.2,1.5c0.1,0.6,0.1,1.2,0.2,1.8c0.1,0.6,0.1,1.2,0.2,1.8c0,0.6,0.1,1.1,0.1,1.6c0,0.5,0.1,0.8,0.1,1.1
			c-0.2,0.1-0.4,0.2-0.6,0.2s-0.5,0.1-0.8,0.1c-0.4,0-0.8-0.1-1-0.2c-0.3-0.1-0.4-0.4-0.5-0.8c-0.1-1.2-0.1-2.2-0.1-3.2
			c0-0.9,0-1.7-0.1-2.4h-0.1c-0.1,0.4-0.3,0.9-0.5,1.6C120.6,112.1,120.3,112.9,120,113.9z"/>
		<path class="st3" d="M125.9,108.6c0.1,0,0.3-0.1,0.5-0.1c0.2,0,0.5,0,0.7,0c0.2,0,0.4,0,0.6,0c0.2,0,0.3,0.1,0.5,0.2
			c0.1,0.1,0.2,0.2,0.3,0.4c0.1,0.2,0.1,0.4,0.1,0.7v3.5c0,0.4,0.1,0.8,0.3,0.9c0.2,0.2,0.5,0.3,0.9,0.3c0.2,0,0.5,0,0.6-0.1
			c0.2,0,0.3-0.1,0.4-0.1v-5.7c0.1,0,0.3-0.1,0.5-0.1c0.2,0,0.5,0,0.7,0c0.2,0,0.4,0,0.6,0c0.2,0,0.3,0.1,0.5,0.2
			c0.1,0.1,0.2,0.2,0.3,0.4c0.1,0.2,0.1,0.4,0.1,0.7v4.9c0,0.5-0.2,0.9-0.7,1.2c-0.4,0.2-0.8,0.4-1.3,0.5c-0.5,0.1-1.1,0.2-1.7,0.2
			c-0.6,0-1.1-0.1-1.6-0.2s-0.9-0.3-1.3-0.6c-0.4-0.3-0.6-0.6-0.8-1s-0.3-0.9-0.3-1.5V108.6z"/>
		<path class="st3" d="M135.5,116.3c-0.2-0.2-0.3-0.3-0.4-0.5c-0.1-0.2-0.2-0.4-0.2-0.7c0-0.2,0.1-0.4,0.2-0.6s0.2-0.4,0.4-0.6
			l2.8-3.3h-3c-0.1-0.1-0.1-0.3-0.2-0.5c-0.1-0.2-0.1-0.4-0.1-0.6c0-0.4,0.1-0.6,0.3-0.8s0.4-0.3,0.7-0.3h5.1
			c0.2,0.2,0.3,0.3,0.4,0.5c0.1,0.2,0.2,0.4,0.2,0.7c0,0.2-0.1,0.4-0.2,0.6c-0.1,0.2-0.2,0.4-0.4,0.6l-2.7,3.3h3.2
			c0.1,0.1,0.1,0.3,0.2,0.5c0.1,0.2,0.1,0.4,0.1,0.6c0,0.4-0.1,0.6-0.3,0.8c-0.2,0.2-0.4,0.3-0.7,0.3H135.5z"/>
		<path class="st3" d="M143,106.3c0-0.4,0.1-0.8,0.4-1s0.6-0.4,1.1-0.4s0.8,0.1,1.1,0.4s0.4,0.6,0.4,1c0,0.4-0.1,0.8-0.4,1
			c-0.3,0.3-0.6,0.4-1.1,0.4s-0.8-0.1-1.1-0.4C143.1,107,143,106.7,143,106.3z M145.8,116.3c-0.1,0-0.3,0.1-0.5,0.1
			c-0.2,0-0.5,0.1-0.7,0.1c-0.2,0-0.5,0-0.6,0c-0.2,0-0.3-0.1-0.5-0.2c-0.1-0.1-0.2-0.2-0.3-0.4c-0.1-0.2-0.1-0.4-0.1-0.7v-6.6
			c0.1,0,0.3-0.1,0.5-0.1c0.2,0,0.5-0.1,0.7-0.1c0.2,0,0.4,0,0.6,0c0.2,0,0.3,0.1,0.5,0.2c0.1,0.1,0.2,0.2,0.3,0.4s0.1,0.4,0.1,0.7
			V116.3z"/>
		<path class="st3" d="M151.7,116.6c-0.6,0-1.2-0.1-1.8-0.3s-1-0.4-1.4-0.8c-0.4-0.4-0.7-0.8-1-1.3c-0.2-0.5-0.3-1.2-0.3-1.9
			c0-0.7,0.1-1.3,0.3-1.8c0.2-0.5,0.5-0.9,0.9-1.3c0.4-0.3,0.8-0.6,1.3-0.7c0.5-0.2,1-0.2,1.5-0.2c0.6,0,1.1,0.1,1.6,0.3
			c0.5,0.2,0.9,0.4,1.2,0.7s0.6,0.7,0.8,1.1s0.3,0.9,0.3,1.4c0,0.4-0.1,0.6-0.3,0.8c-0.2,0.2-0.5,0.3-0.9,0.4l-4,0.6
			c0.1,0.4,0.4,0.6,0.7,0.8s0.8,0.3,1.3,0.3c0.4,0,0.9-0.1,1.3-0.2c0.4-0.1,0.7-0.2,1-0.4c0.2,0.1,0.3,0.3,0.4,0.5
			c0.1,0.2,0.2,0.4,0.2,0.6c0,0.5-0.2,0.8-0.7,1.1c-0.3,0.2-0.7,0.3-1.2,0.4C152.5,116.5,152.1,116.6,151.7,116.6z M151.3,110.2
			c-0.3,0-0.5,0-0.7,0.1s-0.3,0.2-0.5,0.3c-0.1,0.1-0.2,0.3-0.3,0.5c-0.1,0.2-0.1,0.3-0.1,0.5l2.8-0.5c0-0.2-0.2-0.4-0.4-0.6
			C152,110.3,151.7,110.2,151.3,110.2z"/>
		<path class="st3" d="M164.1,114.9c-0.1,0.5-0.2,0.9-0.4,1.2c-0.2,0.3-0.6,0.4-1.1,0.4c-0.3,0-0.7-0.1-0.9-0.3
			c-0.3-0.2-0.6-0.4-0.9-0.8l-1.6-2v2.9c-0.1,0-0.3,0.1-0.5,0.1c-0.2,0-0.5,0.1-0.7,0.1c-0.2,0-0.4,0-0.6,0c-0.2,0-0.3-0.1-0.5-0.2
			c-0.1-0.1-0.2-0.2-0.3-0.4s-0.1-0.4-0.1-0.7v-9.4c0.1,0,0.3-0.1,0.5-0.1c0.2,0,0.5-0.1,0.7-0.1c0.2,0,0.4,0,0.6,0
			c0.2,0,0.3,0.1,0.5,0.2c0.1,0.1,0.2,0.2,0.3,0.4c0.1,0.2,0.1,0.4,0.1,0.7v4.3l2.8-2.8c0.6,0,1,0.1,1.3,0.4
			c0.3,0.2,0.5,0.6,0.5,0.9c0,0.2,0,0.3-0.1,0.4c-0.1,0.1-0.1,0.3-0.3,0.4c-0.1,0.1-0.3,0.3-0.4,0.4s-0.4,0.3-0.6,0.5l-0.9,0.8
			L164.1,114.9z"/>
		<path class="st3" d="M171.8,114c0,0.8-0.3,1.5-0.9,1.9c-0.6,0.5-1.5,0.7-2.7,0.7c-0.5,0-0.9,0-1.3-0.1s-0.7-0.2-1-0.3
			s-0.5-0.3-0.6-0.5s-0.2-0.4-0.2-0.7c0-0.3,0.1-0.5,0.2-0.7c0.1-0.2,0.2-0.3,0.4-0.4c0.3,0.2,0.7,0.3,1.1,0.5
			c0.4,0.1,0.9,0.2,1.4,0.2c0.3,0,0.6,0,0.8-0.1c0.2-0.1,0.3-0.2,0.3-0.4c0-0.2-0.1-0.3-0.2-0.4c-0.1-0.1-0.3-0.2-0.6-0.2l-0.5-0.1
			c-0.9-0.2-1.6-0.5-2.1-0.9c-0.5-0.4-0.7-1-0.7-1.7c0-0.4,0.1-0.8,0.3-1.1c0.2-0.3,0.4-0.6,0.7-0.8c0.3-0.2,0.7-0.4,1.1-0.5
			c0.4-0.1,0.9-0.2,1.4-0.2c0.4,0,0.8,0,1.1,0.1s0.7,0.1,0.9,0.3c0.3,0.1,0.5,0.3,0.6,0.5c0.2,0.2,0.2,0.4,0.2,0.7
			c0,0.2,0,0.5-0.1,0.6s-0.2,0.3-0.3,0.4c-0.1-0.1-0.2-0.1-0.4-0.2c-0.2-0.1-0.4-0.1-0.6-0.2c-0.2,0-0.4-0.1-0.6-0.1
			c-0.2,0-0.4,0-0.6,0c-0.4,0-0.6,0-0.8,0.1c-0.2,0.1-0.3,0.2-0.3,0.4c0,0.1,0.1,0.2,0.2,0.3c0.1,0.1,0.3,0.1,0.6,0.2l0.5,0.1
			c1,0.2,1.8,0.6,2.2,1C171.6,112.8,171.8,113.3,171.8,114z"/>
		<path class="st3" d="M177.7,110.4c-0.3,0-0.5,0-0.8,0.1c-0.2,0.1-0.5,0.2-0.6,0.4c-0.2,0.2-0.3,0.4-0.4,0.6
			c-0.1,0.2-0.2,0.5-0.2,0.9c0,0.7,0.2,1.2,0.6,1.5c0.4,0.3,0.8,0.5,1.4,0.5c0.3,0,0.6,0,0.8-0.1c0.2-0.1,0.4-0.2,0.6-0.2
			c0.2,0.2,0.4,0.3,0.5,0.5s0.2,0.4,0.2,0.6c0,0.4-0.2,0.8-0.6,1s-1,0.4-1.7,0.4c-0.7,0-1.3-0.1-1.8-0.3c-0.5-0.2-1-0.5-1.4-0.8
			c-0.4-0.4-0.7-0.8-0.9-1.3c-0.2-0.5-0.3-1.1-0.3-1.7c0-0.7,0.1-1.3,0.3-1.9c0.2-0.5,0.5-1,0.9-1.3s0.9-0.6,1.4-0.8
			c0.5-0.2,1.1-0.3,1.7-0.3c0.8,0,1.4,0.1,1.8,0.4s0.6,0.6,0.6,1.1c0,0.2,0,0.4-0.1,0.6s-0.2,0.3-0.3,0.5c-0.2-0.1-0.4-0.2-0.7-0.3
			C178.3,110.4,178,110.4,177.7,110.4z"/>
		<path class="st3" d="M188.9,116.3c-0.1,0-0.3,0.1-0.5,0.1c-0.2,0-0.5,0-0.7,0c-0.2,0-0.5,0-0.6,0c-0.2,0-0.3-0.1-0.5-0.2
			c-0.1-0.1-0.2-0.2-0.3-0.4c-0.1-0.2-0.1-0.4-0.1-0.7v-3.6c0-0.4-0.1-0.8-0.3-0.9s-0.5-0.3-0.8-0.3c-0.2,0-0.4,0-0.6,0.1
			c-0.2,0.1-0.4,0.1-0.5,0.2v5.7c-0.1,0-0.3,0.1-0.5,0.1c-0.2,0-0.5,0-0.7,0c-0.2,0-0.4,0-0.6,0c-0.2,0-0.3-0.1-0.5-0.2
			c-0.1-0.1-0.2-0.2-0.3-0.4s-0.1-0.4-0.1-0.7v-9.4c0.1,0,0.3-0.1,0.5-0.1c0.2,0,0.5-0.1,0.7-0.1c0.2,0,0.4,0,0.6,0
			c0.2,0,0.3,0.1,0.5,0.2c0.1,0.1,0.2,0.2,0.3,0.4c0.1,0.2,0.1,0.4,0.1,0.7v1.6c0.1-0.1,0.4-0.1,0.6-0.2s0.6-0.1,0.9-0.1
			c1.1,0,1.9,0.3,2.5,0.8c0.6,0.5,0.9,1.3,0.9,2.4V116.3z"/>
		<path class="st3" d="M198.7,112.4c0,0.7-0.1,1.3-0.3,1.8c-0.2,0.5-0.5,1-0.9,1.3c-0.4,0.4-0.8,0.6-1.3,0.8
			c-0.5,0.2-1.1,0.3-1.7,0.3c-0.6,0-1.2-0.1-1.7-0.3s-1-0.5-1.3-0.8c-0.4-0.4-0.7-0.8-0.9-1.3c-0.2-0.5-0.3-1.1-0.3-1.7
			c0-0.6,0.1-1.2,0.3-1.7c0.2-0.5,0.5-1,0.9-1.3c0.4-0.4,0.8-0.6,1.3-0.8c0.5-0.2,1.1-0.3,1.7-0.3c0.6,0,1.2,0.1,1.7,0.3
			c0.5,0.2,1,0.5,1.3,0.8c0.4,0.4,0.7,0.8,0.9,1.3C198.6,111.2,198.7,111.7,198.7,112.4z M193.1,112.4c0,0.7,0.1,1.2,0.4,1.5
			c0.3,0.3,0.6,0.5,1.1,0.5s0.8-0.2,1-0.5c0.2-0.4,0.4-0.9,0.4-1.5c0-0.6-0.1-1.1-0.4-1.5s-0.6-0.5-1-0.5s-0.8,0.2-1,0.5
			C193.2,111.2,193.1,111.7,193.1,112.4z"/>
		<path class="st3" d="M208.2,112.4c0,0.7-0.1,1.3-0.3,1.8c-0.2,0.5-0.5,1-0.9,1.3c-0.4,0.4-0.8,0.6-1.3,0.8
			c-0.5,0.2-1.1,0.3-1.7,0.3c-0.6,0-1.2-0.1-1.7-0.3s-1-0.5-1.3-0.8c-0.4-0.4-0.7-0.8-0.9-1.3c-0.2-0.5-0.3-1.1-0.3-1.7
			c0-0.6,0.1-1.2,0.3-1.7c0.2-0.5,0.5-1,0.9-1.3c0.4-0.4,0.8-0.6,1.3-0.8c0.5-0.2,1.1-0.3,1.7-0.3c0.6,0,1.2,0.1,1.7,0.3
			c0.5,0.2,1,0.5,1.3,0.8c0.4,0.4,0.7,0.8,0.9,1.3C208.1,111.2,208.2,111.7,208.2,112.4z M202.5,112.4c0,0.7,0.1,1.2,0.4,1.5
			c0.3,0.3,0.6,0.5,1.1,0.5s0.8-0.2,1-0.5c0.2-0.4,0.4-0.9,0.4-1.5c0-0.6-0.1-1.1-0.4-1.5s-0.6-0.5-1-0.5s-0.8,0.2-1,0.5
			C202.6,111.2,202.5,111.7,202.5,112.4z"/>
		<path class="st3" d="M212.3,116.3c-0.1,0-0.3,0.1-0.5,0.1c-0.2,0-0.5,0.1-0.7,0.1c-0.2,0-0.5,0-0.6,0c-0.2,0-0.3-0.1-0.5-0.2
			c-0.1-0.1-0.2-0.2-0.3-0.4c-0.1-0.2-0.1-0.4-0.1-0.7v-9.4c0.1,0,0.3-0.1,0.5-0.1c0.2,0,0.5-0.1,0.7-0.1c0.2,0,0.4,0,0.6,0
			c0.2,0,0.3,0.1,0.5,0.2c0.1,0.1,0.2,0.2,0.3,0.4s0.1,0.4,0.1,0.7V116.3z"/>
	</g>
	<path id="XMLID_114_" class="st3" d="M72,112.5c0,1.5-1.2,2.7-2.7,2.7c-1.5,0-2.7-1.2-2.7-2.7c0-1.5,1.2-2.7,2.7-2.7
		C70.8,109.8,72,111,72,112.5z"/>
	<path id="XMLID_116_" class="st3" d="M222.1,112.5c0,1.5-1.2,2.7-2.7,2.7c-1.5,0-2.7-1.2-2.7-2.7c0-1.5,1.2-2.7,2.7-2.7
		C220.9,109.8,222.1,111,222.1,112.5z"/>
</g>
</svg>
